<svg width="172" height="34" viewBox="0 0 172 34" fill="none" xmlns="http://www.w3.org/2000/svg">
<path fill-rule="evenodd" clip-rule="evenodd" d="M12.8117 19.5449C13.0685 19.6829 13.3976 19.6692 13.6258 19.4648L13.634 19.4722C14.3214 18.8602 15.5724 17.7738 16.2758 17.1841C16.5564 16.955 16.5068 16.5822 16.2872 16.2688C16.22 16.1761 16.1525 16.0852 16.0853 15.9949C15.522 15.2376 14.987 14.5183 14.987 13.0759V7.70821C14.987 7.52346 14.988 7.33994 14.9891 7.15783C15.001 5.09762 15.0119 3.21806 13.4722 1.77893C12.1505 0.510765 9.95887 0.0632935 8.28271 0.0632935C5.00425 0.0632935 1.34554 1.28729 0.578391 5.33876C0.496713 5.76904 0.810529 5.99532 1.09269 6.05863L4.43172 6.42012C4.74437 6.40449 4.97064 6.09732 5.03044 5.78702C5.3169 4.39145 6.48579 3.7181 7.79968 3.7181C8.50821 3.7181 9.31444 3.97916 9.73338 4.61304C10.1663 5.2476 10.1595 6.09156 10.1534 6.85014C10.1526 6.93856 10.1519 7.02582 10.1519 7.11145V7.55893C9.84194 7.59367 9.51719 7.62661 9.18275 7.66054C7.36182 7.84524 5.25346 8.0591 3.67395 8.75244C1.51476 9.6849 0 11.5866 0 14.3835C0 17.9633 2.25572 19.7532 5.15667 19.7532C7.60623 19.7532 8.94591 19.1752 10.8366 17.2489C10.9324 17.3874 11.0183 17.5151 11.0992 17.6353C11.547 18.3006 11.8423 18.7393 12.8117 19.5449ZM10.1517 11.2405C10.1516 11.1822 10.1516 11.1236 10.1516 11.0644V10.3188C7.6598 10.3188 5.02734 10.8526 5.02734 13.7868C5.02734 15.2781 5.80114 16.2852 7.12245 16.2852C8.0893 16.2852 8.95962 15.6888 9.50714 14.7192C10.1542 13.5783 10.1531 12.5055 10.1517 11.2405ZM58.7902 19.4648C58.562 19.6692 58.2333 19.6829 57.9762 19.5449C57.0063 18.7386 56.7111 18.2999 56.2628 17.6337C56.1823 17.5139 56.0967 17.3868 56.0015 17.2489C54.11 19.1752 52.7703 19.7532 50.3211 19.7532C47.4206 19.7532 45.1641 17.9633 45.1641 14.3835C45.1641 11.5866 46.6788 9.6849 48.8384 8.75244C50.4176 8.05908 52.5263 7.84523 54.3476 7.66052L54.3476 7.66052C54.682 7.6266 55.0068 7.59367 55.3168 7.55893V7.11145C55.3168 7.02622 55.3175 6.93938 55.3182 6.85139C55.3243 6.09249 55.331 5.24795 54.8978 4.61304C54.4785 3.97916 53.673 3.7181 52.9637 3.7181C51.6499 3.7181 50.4817 4.39145 50.1945 5.78702C50.1351 6.09732 49.9084 6.40449 49.5962 6.42012L46.2568 6.05863C45.975 5.99532 45.6616 5.76904 45.7428 5.33876C46.5104 1.28729 50.1687 0.0632935 53.4476 0.0632935C55.1233 0.0632935 57.315 0.510765 58.6363 1.77893C60.176 3.21782 60.1651 5.097 60.1532 7.15681C60.1521 7.33926 60.151 7.52312 60.151 7.70821V13.0759C60.151 14.5173 60.6859 15.2365 61.2486 15.9933C61.3162 16.0841 61.3841 16.1755 61.4516 16.2688C61.6716 16.5822 61.7213 16.955 61.4403 17.1841C60.7365 17.7738 59.4863 18.8602 58.7981 19.4722L58.7902 19.4648ZM55.3168 11.0644L55.3169 11.2386C55.3182 12.5044 55.3193 13.5777 54.6719 14.7192C54.124 15.6888 53.2541 16.2852 52.2869 16.2852C50.9656 16.2852 50.1922 15.2781 50.1922 13.7868C50.1922 10.8526 52.8242 10.3188 55.3168 10.3188V11.0644ZM128.146 13.2834C127.667 15.5634 126.515 17.322 124.321 17.3908C121.019 17.2817 120.235 12.8895 120.235 9.87637C120.235 6.75501 121.174 2.69103 124.477 2.58552C126.55 2.65391 127.794 4.37618 128.16 6.54241C128.208 6.84724 128.417 7.12198 128.733 7.16692L130.254 7.1849C130.571 7.14816 130.841 6.89609 130.841 6.60494C130.319 2.72464 127.914 0.127747 124.544 0.127747L124.412 0.128919L124.284 0.127747C119.428 0.127747 117.305 5.15076 117.305 10.0624C117.305 15.0115 119.395 19.886 124.252 19.886L124.377 19.8845L124.512 19.886C127.848 19.886 130.189 17.2512 130.859 13.3733C130.885 13.054 130.571 12.7922 130.229 12.7742L128.777 12.7804C128.457 12.7804 128.239 12.9993 128.146 13.2834ZM149.336 18.8778C149.336 19.2241 149.621 19.5027 149.979 19.5136H151.485C151.83 19.4914 152.104 19.2174 152.104 18.8786L152.104 8.68601C152.104 7.12318 152.265 5.59748 153.101 4.36957C153.752 3.40233 154.849 2.57304 155.934 2.51247C156.98 2.56757 157.978 3.26164 158.533 4.33205C159.016 5.26256 159.08 6.49047 159.08 7.53235L159.087 18.8778C159.087 19.2241 159.373 19.5027 159.73 19.5136H161.236C161.552 19.4929 161.806 19.2639 161.849 18.9708V9.31833L161.849 9.14218C161.848 7.44098 161.847 6.10501 162.749 4.62985C163.463 3.44493 164.567 2.57226 165.77 2.51247C166.847 2.56679 167.848 3.30033 168.374 4.48095C168.837 5.51993 168.831 6.70979 168.825 7.86012V7.86024C168.825 7.98716 168.824 8.11361 168.824 8.23932V18.9646C168.868 19.2702 169.135 19.5035 169.461 19.5136H170.974C171.32 19.4914 171.593 19.2174 171.593 18.8786L171.593 8.23932L171.593 8.04545C171.595 6.33821 171.596 4.34934 170.822 2.84387C169.985 1.20679 168.377 0.127776 166.705 0.127776L166.567 0.12973L166.444 0.127776C164.079 0.127776 162.285 1.81566 161.333 4.19293C160.723 1.78518 159.079 0.127776 156.832 0.127776L156.704 0.12973L156.572 0.127776C154.454 0.127776 152.778 1.72851 151.879 3.77164V1.19311C151.851 0.865225 151.565 0.610811 151.217 0.610811L149.952 0.611202C149.623 0.632305 149.36 0.880857 149.336 1.19272V18.8778ZM19.5899 19.5089H23.0349C23.4022 19.5089 23.7 19.2256 23.6996 18.8723L23.7008 9.49963L23.7006 9.27728C23.6972 7.2544 23.6928 4.62513 26.0808 4.62513C28.2771 4.62513 28.2401 6.96881 28.21 8.875V8.87504V8.87507V8.87511V8.87514V8.87517V8.8752V8.87524V8.87527C28.2066 9.09029 28.2033 9.29974 28.2033 9.49963L28.2068 18.8739C28.2068 19.2127 28.4796 19.4866 28.8254 19.5089H32.2665C32.6334 19.5089 32.9312 19.2256 32.9312 18.8723V9.49963C32.9312 9.42402 32.931 9.34568 32.9308 9.26505C32.9285 8.27427 32.9254 6.93949 33.2525 6.1137C33.6061 5.22032 34.4749 4.66225 35.3108 4.66225C36.3078 4.66225 37.0796 4.99717 37.3368 6.18795C37.4669 6.75914 37.4497 8.08342 37.4384 8.96345C37.4357 9.17264 37.4333 9.35673 37.4333 9.49963L37.4341 18.8739C37.4341 19.2127 37.7069 19.4866 38.0527 19.5089H41.4941C41.8607 19.5089 42.1585 19.2256 42.1585 18.8723L42.1612 7.71365C42.1612 7.43986 42.1659 7.16064 42.1706 6.87879C42.1986 5.20706 42.2282 3.44279 41.2925 2.16931C40.3276 0.829631 38.7519 0.234436 37.3047 0.234436C35.2784 0.234436 33.381 1.27632 32.5451 3.50899C31.5802 1.27632 30.2292 0.234436 28.0747 0.234436C25.9522 0.234436 24.3765 1.27632 23.5402 3.50899H23.4757V1.20011C23.4546 0.8777 23.1849 0.623677 22.8492 0.606482L19.6407 0.607264C19.2734 0.607264 18.976 0.890206 18.976 1.24388L18.9736 18.9266C18.9998 19.2408 19.262 19.4874 19.5899 19.5089ZM64.3452 3.72749V1.20094C64.3468 0.81639 64.6368 0.560022 64.9857 0.560804L76.3105 0.559631C76.6724 0.559631 76.9631 0.823034 76.9639 1.19782L76.9631 3.36483C76.9604 3.72827 76.6544 4.20271 76.1104 4.9554L70.2444 13.3307C72.422 13.2799 74.7254 13.6055 76.704 14.7177C77.1499 14.9682 77.2695 15.3399 77.3047 15.7041V18.3999C77.3047 18.7715 76.8983 19.2014 76.4711 18.9779C72.9851 17.152 68.3596 16.9519 64.5054 18.9997C64.1115 19.2096 63.6992 18.786 63.6992 18.4143V15.8514C63.6992 15.4415 63.707 14.74 64.1205 14.1147L70.917 4.3645L64.9994 4.36372C64.6379 4.36372 64.3476 4.10579 64.3452 3.72749ZM64.2094 22.9713C66.2996 22.7213 70.9251 22.168 71.7513 23.2255C72.5785 24.2842 70.8335 28.6437 70.0522 30.5954L70.0506 30.5996C69.8141 31.1897 70.3214 31.4277 70.8552 30.981C74.3252 28.0785 75.2217 21.9964 74.5108 21.1179C73.8058 20.248 67.7397 19.4968 64.0376 22.0972C63.4682 22.497 63.5663 23.0485 64.1979 22.9726L64.2094 22.9713ZM45.1411 33.6092C53.2151 33.6092 62.592 31.0705 69.0595 26.2976C70.1299 25.5078 69.2131 24.3229 68.1196 24.7872C60.869 27.8624 52.9888 29.3502 45.8203 29.3502C35.1935 29.3502 24.9048 26.4344 16.585 21.5927C15.8573 21.1691 15.3172 21.9163 15.9226 22.4627C23.6347 29.4264 33.8245 33.6092 45.1411 33.6092ZM86.7438 3.84352C84.2028 3.84352 84.0422 7.30409 84.0422 9.46211L84.0422 9.53716C84.0418 11.7255 84.041 16.2348 86.7118 16.2348C89.3813 16.2348 89.5095 12.5135 89.5095 10.2437C89.5095 8.75554 89.4454 6.96917 88.9952 5.55524C88.6087 4.32733 87.8369 3.84352 86.7438 3.84352ZM86.7118 0.234436C91.8254 0.234436 94.5908 4.62513 94.5908 10.2066C94.5908 15.6017 91.5362 19.8814 86.7118 19.8814C81.6946 19.8814 78.9609 15.4903 78.9609 10.0206C78.9609 4.51336 81.7267 0.234436 86.7118 0.234436ZM97.7907 19.5089H101.223C101.59 19.5089 101.888 19.2256 101.894 18.8723V9.35073C101.894 8.15995 101.959 7.08094 102.441 6.00193C102.827 5.14607 103.598 4.588 104.435 4.588C106.63 4.588 106.609 6.99362 106.592 8.88544V8.88589V8.88634V8.88678V8.88721V8.88763V8.88805C106.591 9.04646 106.59 9.20127 106.59 9.35073V18.9516C106.627 19.2541 106.884 19.4882 107.203 19.5089H110.657C110.998 19.5089 111.279 19.2654 111.318 18.9516V7.82503C111.318 6.1137 111.318 3.73214 110.417 2.31821C109.452 0.792505 107.94 0.234436 106.397 0.234436C104.017 0.234436 102.666 1.3877 101.701 3.80639H101.637V1.10163C101.573 0.827287 101.325 0.621723 101.025 0.606482L97.8286 0.607264C97.4816 0.607264 97.1959 0.861287 97.167 1.18448L97.1725 18.8739C97.1725 19.2127 97.4456 19.4866 97.7907 19.5089ZM113.476 18.106C113.476 17.2161 114.236 16.4947 115.172 16.4947C116.109 16.4947 116.868 17.2161 116.868 18.106C116.868 18.9954 116.109 19.7165 115.172 19.7165C114.236 19.7165 113.476 18.9954 113.476 18.106ZM139.957 17.4647C141.565 17.4123 142.833 16.4161 143.584 14.7509C144.259 13.2627 144.388 11.551 144.388 9.91391C144.388 8.12755 144.195 6.26732 143.359 4.74162C142.61 3.40702 141.319 2.5621 139.951 2.51129C138.428 2.56718 137.071 3.59656 136.383 5.18791C135.773 6.56472 135.58 8.38821 135.58 9.91391C135.58 11.6252 135.805 13.5972 136.513 15.0858C137.199 16.4958 138.525 17.4142 139.957 17.4647ZM139.596 19.8861C134.708 19.8861 132.521 14.8998 132.521 9.91391C132.521 4.66697 135.095 0.127776 140.014 0.127776L140.141 0.128949L140.275 0.127776C145.067 0.127776 147.447 4.96476 147.447 9.95065C147.447 15.2347 144.81 19.8861 139.856 19.8861L139.73 19.8845L139.596 19.8861Z" fill="#1A1A1A"/>
</svg>
