<svg width="152" height="30" viewBox="0 0 152 30" fill="none" xmlns="http://www.w3.org/2000/svg">
<path fill-rule="evenodd" clip-rule="evenodd" d="M14.2197 4.60642V0.00360163H10.2743C10.2743 0.00360163 7.56204 -0.16067 5.50718 1.72962C3.45233 3.6202 3.94544 5.92147 3.94544 5.92147V10.1136H0V15.0455H3.78117V29.1004H9.37019V15.1093H13.6445L14.2197 10.1136H9.37019V6.497C9.37019 4.27758 11.6717 4.60642 11.6717 4.60642H14.2197ZM23.7761 25.2785C25.7751 25.2785 27.3956 23.4861 27.3956 21.5795V17.9632C27.3956 16.0566 25.7751 14.2644 23.7761 14.2644C21.7769 14.2644 20.1563 16.0566 20.1563 17.9632V21.5795C20.1563 23.4861 21.7769 25.2785 23.7761 25.2785ZM27.6962 12.7039V10.1958H33.0834V29.1005H27.6997L27.7367 26.662C26.3078 28.5701 24.2969 29.7578 22.0693 29.7578C17.7342 29.7578 14.2198 25.8948 14.2198 19.7096C14.2198 13.4836 17.7342 9.66133 22.0693 9.66133C24.2759 9.66133 26.2702 10.8273 27.6962 12.7039ZM77.3623 17.84C77.3623 15.9334 78.9829 14.1409 80.9818 14.1409C82.981 14.1409 84.6016 15.9334 84.6016 17.84V21.4563C84.6016 23.3629 82.981 25.155 80.9818 25.155C78.9829 25.155 77.3623 23.3629 77.3623 21.4563V17.84ZM77.0611 29.2237V26.7156C78.4871 28.5922 80.4814 29.7581 82.688 29.7581C87.0232 29.7581 90.5375 25.9359 90.5375 19.7096C90.5375 13.5246 87.0232 9.66134 82.688 9.66134C80.4604 9.66134 78.4496 10.8494 77.0206 12.7572L77.0576 0.272217L71.459 0.902217V29.1375L77.0611 29.2237ZM40.9323 19.8304C40.9323 25.4197 45.2476 25.173 45.2476 25.173C48.1655 25.2141 49.193 24.1868 49.193 24.1868L50.5492 28.2555C48.2065 29.9815 41.1379 30.269 37.9733 27.3511C35.2352 24.8264 35.2358 20.7348 35.2856 19.6775C35.2358 18.6202 35.2352 14.5289 37.9733 12.0039C41.1379 9.08604 48.2065 9.37381 50.5492 11.0998L49.193 15.1685C49.193 15.1685 48.1655 14.1409 45.2476 14.1823C45.2476 14.1823 40.9323 13.9356 40.9323 19.5249V19.8304ZM57.0018 17.8809C57.0018 17.8809 56.7141 13.689 60.4952 13.689C64.2761 13.689 63.9883 17.8809 63.9883 17.8809H57.0018ZM69.1256 21.7028C69.1256 21.7028 71.3858 9.86682 60.5774 9.80274C49.7686 9.73837 51.3304 20.511 51.3304 20.511C51.5771 27.0455 54.5771 28.936 59.7144 29.5523C64.8513 30.169 68.7557 28.1962 68.7557 28.1962L67.5639 24.3743C67.5639 24.3743 63.4131 25.6483 60.1253 25.3605C56.8376 25.073 57.084 21.7028 57.084 21.7028H69.1256ZM101.626 25.1786C103.678 25.1786 105.341 23.3861 105.341 21.4795V17.8632C105.341 15.9566 103.678 14.1645 101.626 14.1645C99.5754 14.1645 97.9123 15.9566 97.9123 17.8632V21.4795C97.9123 23.3861 99.5754 25.1786 101.626 25.1786ZM92.2706 19.8386C92.2706 14.1645 94.6385 9.91933 101.675 9.91933C108.392 9.91933 111.079 14.3605 111.079 19.8386C111.079 26.2685 106.868 29.7581 101.675 29.7581C95.3218 29.7581 92.2706 25.8584 92.2706 19.8386ZM126.107 21.4795C126.107 23.3861 124.444 25.1786 122.393 25.1786C120.342 25.1786 118.679 23.3861 118.679 21.4795V17.8632C118.679 15.9566 120.342 14.1645 122.393 14.1645C124.444 14.1645 126.107 15.9566 126.107 17.8632V21.4795ZM122.441 9.91933C115.405 9.91933 113.037 14.1645 113.037 19.8386C113.037 25.8584 116.088 29.7581 122.441 29.7581C127.635 29.7581 131.845 26.2685 131.845 19.8386C131.845 14.3605 129.158 9.91933 122.441 9.91933ZM145.416 19.665L151.564 29.1829H145.735L139.541 19.5002V29.1829H133.894V0.765631L139.541 0.173786V18.6672L145.28 10.1469H151.291L145.416 19.665Z" fill="#1A1A1A"/>
</svg>
