<svg width="135" height="40" viewBox="0 0 135 40" fill="none" xmlns="http://www.w3.org/2000/svg">
<path fill-rule="evenodd" clip-rule="evenodd" d="M67.0242 2.77863H62.1517V8.79114H59.5264V13.1297H62.1517V28.3161H67.0242V13.1297H69.6892V8.79114H67.0242V2.77863ZM54.9587 0C53.1691 0 51.7607 1.4084 51.7607 3.23542C51.7607 5.0235 53.1691 6.43267 54.9587 6.43267C56.8232 6.43267 58.2323 5.0235 58.2323 3.23542C58.2323 1.4084 56.8232 0 54.9587 0ZM132.411 8.33585C131.575 8.33585 130.927 7.68854 130.927 6.85053C130.927 6.05126 131.575 5.40395 132.411 5.40395C133.211 5.40395 133.857 6.05126 133.857 6.85053C133.857 7.68854 133.211 8.33585 132.411 8.33585ZM132.41 5.17679C131.46 5.17679 130.699 5.93768 130.699 6.85053C130.699 7.80212 131.46 8.56378 132.41 8.56378C133.325 8.56378 134.086 7.80212 134.086 6.85053C134.086 5.93768 133.325 5.17679 132.41 5.17679ZM75.3584 16.5184C76.0057 13.9305 77.9853 12.4839 80.5352 12.4839C83.0859 12.4839 84.9875 13.8916 85.5974 16.5184H75.3584ZM80.6486 8.18256C74.7888 8.18256 70.335 12.6746 70.335 18.6497C70.335 24.5485 74.4084 28.8874 80.7252 28.8874C84.2267 28.8874 87.3484 27.5939 89.632 25.157L86.3586 21.9231C84.7597 23.4459 83.047 24.5485 80.8393 24.5485C78.176 24.5485 76.1583 23.0257 75.4736 20.4767H90.6584V19.297C90.6584 12.6357 86.5493 8.18256 80.6486 8.18256ZM123.77 8.18257C121.373 8.18257 119.318 9.09522 117.872 10.6569V0.533733H112.999V28.3161H117.872V17.6979C117.872 14.8821 119.661 12.94 122.629 12.94C125.408 12.94 126.93 14.6525 126.93 17.6979V28.3161H131.802V16.8227C131.802 11.4188 128.413 8.18257 123.77 8.18257ZM132.03 6.81312V6.20303H132.411C132.717 6.20303 132.831 6.31833 132.831 6.50884C132.831 6.69878 132.717 6.81312 132.411 6.81312H132.03ZM133.057 6.50883C133.057 6.12838 132.791 5.9751 132.41 5.9751H131.802V7.72576H132.029V7.04104H132.41L132.83 7.72576H133.095L132.64 7.00381C132.907 6.96411 133.057 6.81311 133.057 6.50883ZM102.761 12.9026C104.816 12.9026 106.492 13.9677 107.786 15.4532L111.173 12.1035C109.27 9.70531 106.263 8.18257 102.839 8.18257C96.9397 8.18257 92.2951 12.6746 92.2951 18.5344C92.2951 24.3959 96.9397 28.8874 102.839 28.8874C106.263 28.8874 109.27 27.3643 111.173 24.9686L107.786 21.6189C106.53 23.0649 104.816 24.168 102.724 24.168C99.6023 24.168 97.2043 21.7326 97.2043 18.5344C97.2043 15.3372 99.6023 12.9026 102.761 12.9026ZM52.5615 28.3161H57.4342V8.79114H52.5615V28.3161ZM17.3179 24.168C14.1962 24.168 11.7217 21.6952 11.7217 18.4972C11.7217 15.3372 14.1962 12.9026 17.3179 12.9026C20.4764 12.9026 22.9507 15.3372 22.9507 18.5344C22.9507 21.7326 20.4764 24.168 17.3179 24.168ZM17.3175 8.18257C11.4172 8.18257 6.77417 12.6746 6.77417 18.5344C6.77417 24.3959 11.4172 28.8874 17.3175 28.8874C23.2164 28.8874 27.8593 24.3959 27.8593 18.5344C27.8593 12.6746 23.2164 8.18257 17.3175 8.18257ZM0 28.3161H4.87251V0.533733H0V28.3161ZM40.0771 24.168C36.957 24.168 34.4827 21.6952 34.4827 18.4972C34.4827 15.3372 36.957 12.9026 40.0771 12.9026C43.2364 12.9026 45.7107 15.3372 45.7107 18.5344C45.7107 21.7326 43.2364 24.168 40.0771 24.168ZM50.4296 12.6746V8.79112H43.5775C42.4749 8.4122 41.2954 8.18256 40.0768 8.18256C34.178 8.18256 29.5352 12.6746 29.5352 18.5344C29.5352 24.3959 34.178 28.8874 40.0768 28.8874C45.9757 28.8874 50.6203 24.3959 50.6203 18.5344C50.6203 16.5556 50.0864 14.6152 49.0212 13.1686L50.4296 12.6746ZM40.0768 35.2434C36.9566 35.2434 34.4823 32.8082 34.4823 29.6491H29.5352C29.5352 35.5104 34.178 40 40.0768 40C45.9757 40 50.6203 35.5104 50.6203 29.6491H45.6714C45.6714 32.8082 43.1969 35.2434 40.0768 35.2434Z" fill="#1A1A1A"/>
</svg>
